HIERARCHY
ROOT Hips
{
	OFFSET 0.000000 0.000000 0.000000
	CHANNELS 6 Xposition Yposition Zposition Zrotation Yrotation Xrotation 
	JOINT LeftUpLeg_virtual
	{
		OFFSET 0.000000 0.000000 0.000000
		CHANNELS 3 Zrotation Yrotation Xrotation
		JOINT LeftUpLeg
		{
			OFFSET 8.479694 -4.795517 -0.379053
			CHANNELS 3 Zrotation Yrotation Xrotation
			JOINT LeftLeg
			{
				OFFSET 0.485052 -32.551468 0.112863
				CHANNELS 3 Zrotation Yrotation Xrotation
				JOINT LeftFoot
				{
					OFFSET 0.438033 -32.635670 -3.012641
					CHANNELS 3 Zrotation Yrotation Xrotation
					JOINT LeftToeBase
					{
						OFFSET 0.970169 -13.225353 11.864223
						CHANNELS 3 Zrotation Yrotation Xrotation
						End Site
						{
							OFFSET 0.000000 0.000000 0.000000
						}
					}
				}
			}
		}
	}
	JOINT RightUpLeg_virtual
	{
		OFFSET 0.000000 0.000000 0.000000
		CHANNELS 3 Zrotation Yrotation Xrotation
		JOINT RightUpLeg
		{
			OFFSET -8.479694 -4.795517 -0.379053
			CHANNELS 3 Zrotation Yrotation Xrotation
			JOINT RightLeg
			{
				OFFSET -0.484100 -32.551483 0.112903
				CHANNELS 3 Zrotation Yrotation Xrotation
				JOINT RightFoot
				{
					OFFSET -0.438985 -32.635651 -3.012681
					CHANNELS 3 Zrotation Yrotation Xrotation
					JOINT RightToeBase
					{
						OFFSET -0.970169 -13.225354 11.864223
						CHANNELS 3 Zrotation Yrotation Xrotation
						End Site
						{
							OFFSET 0.000000 0.000000 0.000000
						}
					}
				}
			}
		}
	}
	JOINT Spine_virtual
	{
		OFFSET 0.000000 0.000000 0.000000
		CHANNELS 3 Zrotation Yrotation Xrotation
		JOINT Spine
		{
			OFFSET 0.000000 7.722015 1.166203
			CHANNELS 3 Zrotation Yrotation Xrotation
			JOINT Spine1
			{
				OFFSET 0.000000 12.024086 0.248766
				CHANNELS 3 Zrotation Yrotation Xrotation
				JOINT Spine2
				{
					OFFSET -0.000000 11.503036 -0.491240
					CHANNELS 3 Zrotation Yrotation Xrotation
					JOINT Neck_virtual
					{
						OFFSET 0.000000 0.000000 0.000000
						CHANNELS 3 Zrotation Yrotation Xrotation
						JOINT Neck
						{
							OFFSET 0.000000 18.430687 -3.123054
							CHANNELS 3 Zrotation Yrotation Xrotation
							JOINT Head
							{
								OFFSET -0.000000 9.051071 1.034021
								CHANNELS 3 Zrotation Yrotation Xrotation
								End Site
								{
									OFFSET 0.000000 0.000000 0.000000
								}
							}
						}
					}
					JOINT LeftShoulder_virtual
					{
						OFFSET 0.000000 0.000000 0.000000
						CHANNELS 3 Zrotation Yrotation Xrotation
						JOINT LeftShoulder
						{
							OFFSET 6.197824 13.665230 -4.064723
							CHANNELS 3 Zrotation Yrotation Xrotation
							JOINT LeftArm
							{
								OFFSET 7.778132 -0.187073 -1.709282
								CHANNELS 3 Zrotation Yrotation Xrotation
								JOINT LeftForeArm
								{
									OFFSET 21.954697 0.000000 -2.041093
									CHANNELS 3 Zrotation Yrotation Xrotation
									JOINT LeftHand
									{
										OFFSET 22.992908 0.000000 -0.870901
										CHANNELS 3 Zrotation Yrotation Xrotation
										End Site
										{
											OFFSET 0.000000 0.000000 0.000000
										}
									}
								}
							}
						}
					}
					JOINT RightShoulder_virtual
					{
						OFFSET 0.000000 0.000000 0.000000
						CHANNELS 3 Zrotation Yrotation Xrotation
						JOINT RightShoulder
						{
							OFFSET -6.197824 13.665230 -4.064723
							CHANNELS 3 Zrotation Yrotation Xrotation
							JOINT RightArm
							{
								OFFSET -7.778132 -0.187073 -1.709282
								CHANNELS 3 Zrotation Yrotation Xrotation
								JOINT RightForeArm
								{
									OFFSET -21.954697 0.000000 -2.041093
									CHANNELS 3 Zrotation Yrotation Xrotation
									JOINT RightHand
									{
										OFFSET -22.992908 0.000000 -0.870901
										CHANNELS 3 Zrotation Yrotation Xrotation
										End Site
										{
											OFFSET 0.000000 0.000000 0.000000
										}
									}
								}
							}
						}
					}
				}
			}
		}
	}
}
MOTION
Frames: 7
Frame Time: 0.033333
1.857575 26.768187 35.210526 -179.870723 6.013465 179.990088 17.800813 0.754783 -58.535698 -8.011930 15.994245 -44.810269 7.681003 1.620048 33.575185 -8.649828 -11.682407 2.478599 0.000000 0.000000 0.000000 2.767606 9.969771 -54.547626 6.529338 -6.526408 -52.013359 -0.875161 0.905773 44.134753 2.758378 19.361781 2.146111 0.000000 0.000000 0.000000 6.253736 10.341959 -64.659277 -5.646435 0.119551 -2.089856 -2.068396 -2.463773 2.111663 -0.032255 -0.013420 0.013114 -2.403005 -2.826015 5.431200 10.806000 -10.498838 15.998627 0.000000 0.000000 0.000000 0.608117 -1.987491 -0.494635 -0.871203 8.852233 1.534702 -2.174112 -40.826213 -64.451502 -161.792893 -72.967485 170.008435 0.000000 0.000000 0.000000 -5.227300 -0.736589 -1.521507 27.925078 10.790776 6.496291 7.182425 13.276759 -70.307604 -176.714329 51.928429 171.598107 0.000000 0.000000 0.000000 
2.193067 26.792458 35.275734 -179.946866 6.218443 179.973504 18.902601 0.203543 -58.244438 -7.347340 15.962313 -44.898057 7.854275 0.835321 33.721522 -7.963451 -11.958159 1.994567 0.000000 0.000000 0.000000 3.458888 9.346377 -54.546686 4.902714 -5.756960 -51.874484 -0.528237 1.656065 44.782726 3.627137 18.965386 2.601229 0.000000 0.000000 0.000000 7.031705 9.569119 -64.235935 -5.238667 0.156707 -2.468541 -2.035739 -2.034424 2.355591 -0.029287 -0.061777 0.012856 -2.420367 -2.326526 5.714757 9.587286 -10.309584 16.371016 0.000000 0.000000 0.000000 0.665033 -1.465934 -0.314961 -2.684676 7.803446 1.499864 -4.971619 -41.604680 -61.236908 -159.783683 -73.620259 166.772989 0.000000 0.000000 0.000000 -5.210213 -0.175146 -1.485020 30.179020 7.236752 3.941289 8.211491 16.655589 -64.418820 -177.368115 52.237738 169.365155 0.000000 0.000000 0.000000 
2.438898 26.817867 35.406876 -179.930924 6.311201 -179.979774 19.753664 -0.630909 -58.285208 -6.420089 15.662168 -44.758861 8.491887 0.336286 33.800530 -7.756119 -12.244863 0.075507 0.000000 0.000000 0.000000 4.327248 8.410496 -54.742365 3.649063 -5.148717 -51.768326 -0.160085 2.477875 45.230165 4.649136 18.601438 3.263344 0.000000 0.000000 0.000000 7.606792 8.582037 -64.275085 -5.004326 -0.235198 -2.483585 -1.934844 -1.580810 2.892869 0.010821 0.000334 -0.007577 -2.343262 -1.926828 6.312247 8.264848 -9.801576 16.362751 0.000000 0.000000 0.000000 0.778986 -1.059552 0.248817 -4.587678 5.647803 1.599269 -7.623692 -42.861179 -57.059052 -156.565162 -75.282379 162.413812 0.000000 0.000000 0.000000 -5.122119 0.315305 -0.994411 31.795244 3.845140 1.500405 10.200796 18.345279 -57.330142 -177.779866 53.522278 167.692482 0.000000 0.000000 0.000000 
2.598314 26.823778 35.532085 179.825234 6.710259 -179.977083 20.177694 -1.127548 -58.495072 -5.332949 15.017366 -44.458699 8.709974 -0.483238 34.025950 -7.625421 -12.928482 -2.200556 0.000000 0.000000 0.000000 5.121520 7.800503 -54.897686 2.629498 -4.349761 -51.608185 0.150512 3.227931 45.314487 5.825358 18.264363 4.246865 0.000000 0.000000 0.000000 7.736748 7.984793 -64.399408 -4.957994 -0.607199 -2.191614 -1.843256 -1.257896 3.753121 -0.019757 0.046620 0.030196 -2.145832 -1.560515 7.133133 6.882443 -9.386892 16.039647 0.000000 0.000000 0.000000 0.963486 -0.769706 1.118780 -6.582287 2.429224 1.577074 -10.316944 -44.366040 -51.677413 -148.869519 -78.044419 153.709145 0.000000 0.000000 0.000000 -4.848396 0.572759 -0.175510 32.386380 0.924834 -0.758774 12.786136 17.953711 -49.549317 -178.656602 56.187001 166.110966 0.000000 0.000000 0.000000 
2.796602 26.842747 35.481220 179.888591 7.245761 -179.962821 20.528330 -1.119575 -58.423334 -4.755450 14.423548 -44.410836 8.999591 -1.303523 34.489436 -7.412159 -13.366421 -2.990397 0.000000 0.000000 0.000000 5.957314 7.723615 -54.692364 1.988540 -3.500787 -51.637927 0.358079 3.758562 44.921697 7.033573 17.933640 5.391271 0.000000 0.000000 0.000000 7.650769 8.007193 -64.298424 -5.004691 -1.151073 -1.765902 -1.769357 -1.139849 4.883313 -0.009418 0.029319 0.034326 -2.076381 -1.396565 8.281889 5.482142 -8.876995 15.529910 0.000000 0.000000 0.000000 1.035726 -0.699101 2.240969 -8.317777 -1.331906 1.708957 -13.239367 -45.499937 -45.426728 -132.386101 -81.175610 136.175203 0.000000 0.000000 0.000000 -4.710204 0.754216 1.076639 32.094967 -1.486150 -2.533443 15.049779 16.325219 -41.139852 -179.572312 60.255246 164.947661 0.000000 0.000000 0.000000 
3.120058 26.892950 35.393154 179.722344 8.038970 -179.916759 20.949167 -0.633703 -57.615583 -4.541056 14.004917 -44.647038 9.243597 -2.023048 34.878091 -6.432674 -13.424139 -1.224241 0.000000 0.000000 0.000000 6.809076 8.438935 -53.929131 1.473138 -2.383567 -52.098904 0.440572 4.130347 44.129227 8.279719 17.581242 6.647008 0.000000 0.000000 0.000000 7.656839 8.424670 -63.529946 -5.136255 -1.514635 -1.415833 -1.694457 -1.055022 6.165795 -0.007627 0.068503 0.019757 -2.214412 -1.381264 9.689623 4.111051 -8.197805 14.985384 0.000000 0.000000 0.000000 0.877741 -0.573381 3.601735 -9.595134 -5.061116 1.909931 -16.009175 -45.725521 -38.941190 -99.284702 -83.217044 102.625020 0.000000 0.000000 0.000000 -4.737878 0.840516 2.688172 30.963163 -3.066498 -3.991592 16.781498 14.571870 -33.079241 178.765585 65.776600 163.563155 0.000000 0.000000 0.000000 
3.647352 26.933315 35.235050 179.617897 8.836451 -179.994199 21.815179 0.022089 -55.848882 -4.686903 13.484145 -45.150952 9.660739 -2.921574 34.876093 -5.313997 -13.070350 -0.296444 0.000000 0.000000 0.000000 8.040440 9.467740 -52.393111 1.188646 -1.288170 -53.042245 0.549114 4.711188 43.125500 9.293231 17.033699 7.761064 0.000000 0.000000 0.000000 8.003267 9.155904 -61.817249 -5.428361 -1.645282 -1.209087 -1.961010 -1.021330 7.491465 0.010642 0.081646 0.040448 -2.409441 -1.230464 11.093428 2.949090 -7.926406 14.418306 0.000000 0.000000 0.000000 0.697928 -0.476000 4.982143 -10.215267 -8.548430 2.095732 -18.436663 -44.673754 -32.793528 -62.625847 -82.285249 65.532127 0.000000 0.000000 0.000000 -4.836873 1.011876 4.291495 29.593031 -3.941456 -4.608247 18.109847 13.413744 -25.698305 176.829213 72.328008 162.374661 0.000000 0.000000 0.000000 
